<?xml version="1.0" encoding="utf-8"?>
<svg version="1.1" xmlns:xlink="http://www.w3.org/1999/xlink" width="24px" height="21px" xmlns="http://www.w3.org/2000/svg">
  <g transform="matrix(1 0 0 1 -158 -750 )">
    <path d="M 22.3928571428571 4.35165907612232  C 23.4642857142857 5.69518542615485  24 7.15940143135979  24 8.74430709173715  C 24 10.3292127521145  23.4642857142857 11.7934287573195  22.3928571428571 13.136955107352  C 21.3214285714286 14.4804814573845  19.8660714285714 15.5416395575797  18.0267857142857 16.3204294079375  C 16.1875 17.0992192582954  14.1785714285714 17.4886141834743  12 17.4886141834743  C 11.375 17.4886141834743  10.7276785714286 17.4521795705921  10.0580357142857 17.3793103448276  C 8.29017857142857 18.9733246584255  6.23660714285714 20.0754716981132  3.89732142857143 20.6857514638907  C 3.45982142857143 20.8132726089785  2.95089285714286 20.9134677944047  2.37053571428571 20.9863370201692  C 2.21875 21.0045543266103  2.08258928571429 20.9635653871178  1.96205357142857 20.8633702016916  C 1.84151785714286 20.7631750162655  1.76339285714286 20.6310995445673  1.72767857142857 20.4671437865973  L 1.72767857142857 20.4534808067664  C 1.70089285714286 20.4170461938842  1.69866071428571 20.3623942745608  1.72098214285714 20.2895250487964  C 1.74330357142857 20.2166558230319  1.75223214285714 20.1711125569291  1.74776785714286 20.152895250488  C 1.74330357142857 20.1346779440468  1.76339285714286 20.0914118412492  1.80803571428571 20.023096942095  L 1.88839285714286 19.9001301236174  C 1.88839285714286 19.9001301236174  1.91964285714286 19.8614183474301  1.98214285714286 19.7839947950553  C 2.04464285714286 19.7065712426805  2.08035714285714 19.665582303188  2.08928571428571 19.6610279765777  C 2.15178571428571 19.5881587508133  2.29017857142857 19.4310344827586  2.50446428571429 19.1896551724138  C 2.71875 18.948275862069  2.87276785714286 18.7752114508783  2.96651785714286 18.6704619388419  C 3.06026785714286 18.5657124268055  3.19866071428571 18.3858165256994  3.38169642857143 18.1307742355237  C 3.56473214285714 17.8757319453481  3.70982142857143 17.6434612882238  3.81696428571429 17.4339622641509  C 3.92410714285714 17.2244632400781  4.04464285714286 16.9557579700716  4.17857142857143 16.6278464541314  C 4.3125 16.2999349381913  4.42857142857143 15.95380611581  4.52678571428571 15.5894599869876  C 3.125 14.7787898503578  2.02008928571429 13.7768379960963  1.21205357142857 12.583604424203  C 0.404017857142857 11.3903708523097  0 10.1106050748211  0 8.74430709173715  C 0 7.56018217306441  0.316964285714286 6.42843201040989  0.950892857142857 5.34905660377359  C 1.58482142857143 4.26968119713728  2.4375 3.33832140533507  3.50892857142857 2.55497722836695  C 4.58035714285714 1.77163305139883  5.85714285714286 1.14996746909564  7.33928571428572 0.689980481457384  C 8.82142857142857 0.229993493819127  10.375 0  12 0  C 14.1785714285714 0  16.1875 0.38939492517892  18.0267857142857 1.16818477553676  C 19.8660714285714 1.9469746258946  21.3214285714286 3.00813272608978  22.3928571428571 4.35165907612232  Z " fill-rule="nonzero" fill="#02a7f0" stroke="none" transform="matrix(1 0 0 1 158 750 )" />
  </g>
</svg>