<?xml version="1.0" encoding="utf-8"?>
<svg version="1.1" xmlns:xlink="http://www.w3.org/1999/xlink" width="40px" height="31px" xmlns="http://www.w3.org/2000/svg">
  <g transform="matrix(1 0 0 1 -335 -380 )">
    <path d="M 37.7678571428571 11.9112215909091  C 38.6160714285714 11.3387784090909  39.3601190476191 10.7002840909091  40 9.99573863636363  L 40 27.4772727272727  C 40 28.4460227272727  39.6502976190476 29.2753314393939  38.9508928571429 29.9651988636364  C 38.2514880952381 30.6550662878788  37.4107142857143 31  36.4285714285714 31  L 3.57142857142857 31  C 2.58928571428571 31  1.7485119047619 30.6550662878788  1.04910714285714 29.9651988636364  C 0.349702380952381 29.2753314393939  0 28.4460227272727  0 27.4772727272727  L 0 9.99573863636363  C 0.654761904761905 10.7149621212121  1.40625 11.3534564393939  2.25446428571429 11.9112215909091  C 7.64136904761905 15.5220170454545  11.3392857142857 18.0539772727273  13.3482142857143 19.5071022727273  C 14.1964285714286 20.1235795454545  14.8846726190476 20.6042850378788  15.4129464285714 20.94921875  C 15.9412202380952 21.2941524621212  16.6443452380952 21.6464251893939  17.5223214285714 22.0060369318182  C 18.4002976190476 22.3656486742424  19.21875 22.5454545454545  19.9776785714286 22.5454545454545  L 20 22.5454545454545  L 20.0223214285714 22.5454545454545  C 20.78125 22.5454545454545  21.5997023809524 22.3656486742424  22.4776785714286 22.0060369318182  C 23.3556547619048 21.6464251893939  24.0587797619048 21.2941524621212  24.5870535714286 20.94921875  C 25.1153273809524 20.6042850378788  25.8035714285714 20.1235795454545  26.6517857142857 19.5071022727273  C 29.1815476190476 17.7017045454545  32.8869047619048 15.1697443181818  37.7678571428571 11.9112215909091  Z M 38.9397321428571 1.03480113636363  C 39.6465773809524 1.72466856060606  40 2.55397727272727  40 3.52272727272727  C 40 4.68229166666666  39.6354166666667 5.79048295454545  38.90625 6.84730113636363  C 38.1770833333333 7.90411931818182  37.2693452380952 8.80681818181818  36.1830357142857 9.55539772727273  C 30.5877976190476 13.3863636363636  27.1056547619048 15.7715435606061  25.7366071428571 16.7109375  C 25.5877976190476 16.8136837121212  25.2715773809524 17.0375236742424  24.7879464285714 17.3824573863636  C 24.3043154761905 17.7273910984848  23.9025297619048 18.0062736742424  23.5825892857143 18.2191051136364  C 23.2626488095238 18.4319365530303  22.8757440476191 18.6704545454545  22.421875 18.9346590909091  C 21.968005952381 19.1988636363636  21.5401785714286 19.3970170454545  21.1383928571429 19.5291193181818  C 20.7366071428571 19.6612215909091  20.3645833333333 19.7272727272727  20.0223214285714 19.7272727272727  L 20 19.7272727272727  L 19.9776785714286 19.7272727272727  C 19.6354166666667 19.7272727272727  19.2633928571429 19.6612215909091  18.8616071428571 19.5291193181818  C 18.4598214285714 19.3970170454545  18.031994047619 19.1988636363636  17.578125 18.9346590909091  C 17.124255952381 18.6704545454545  16.7373511904762 18.4319365530303  16.4174107142857 18.2191051136364  C 16.0974702380952 18.0062736742424  15.6956845238095 17.7273910984848  15.2120535714286 17.3824573863636  C 14.7284226190476 17.0375236742424  14.4122023809524 16.8136837121212  14.2633928571429 16.7109375  C 12.9092261904762 15.7715435606061  10.9598214285714 14.4321732954545  8.41517857142857 12.6928267045455  C 5.87053571428571 10.9534801136364  4.3452380952381 9.90767045454545  3.83928571428571 9.55539772727273  C 2.91666666666667 8.93892045454545  2.04613095238095 8.09126420454545  1.22767857142857 7.01242897727273  C 0.409226190476191 5.93359375  0 4.93181818181818  0 4.00710227272727  C 0 2.86221590909091  0.308779761904762 1.90814393939394  0.926339285714286 1.14488636363637  C 1.54389880952381 0.381628787878785  2.42559523809524 0  3.57142857142857 0  L 36.4285714285714 0  C 37.3958333333333 0  38.2328869047619 0.344933712121208  38.9397321428571 1.03480113636363  Z " fill-rule="nonzero" fill="#555555" stroke="none" transform="matrix(1 0 0 1 335 380 )" />
  </g>
</svg>