<?xml version="1.0" encoding="utf-8"?>
<svg version="1.1" xmlns:xlink="http://www.w3.org/1999/xlink" width="41px" height="46px" xmlns="http://www.w3.org/2000/svg">
  <g transform="matrix(1 0 0 1 -116 -72 )">
    <path d="M 134.983043141635 72.5649031355899  C 135.48772519003 72.5218023912097  135.993733133875 72.5  136.5 72.5  C 147.57571047215 72.5  156.5 82.6072690281871  156.5 95  C 156.5 107.392730971813  147.57571047215 117.5  136.5 117.5  C 125.42428952785 117.5  116.5 107.392730971813  116.5 95  C 116.5 91.2331236120686  117.331722776408 87.5242036932404  118.940854867669 84.2216416151193  L 136.228167327542 95.4196510433492  A 0.5 0.5 0 0 0 136.997987578692 94.9551851423259 L 134.983043141625 72.5649031355907  Z " fill-rule="nonzero" fill="#99d5fd" stroke="none" />
    <path d="M 134.983043141635 72.5649031355899  C 135.48772519003 72.5218023912097  135.993733133875 72.5  136.5 72.5  C 147.57571047215 72.5  156.5 82.6072690281871  156.5 95  C 156.5 107.392730971813  147.57571047215 117.5  136.5 117.5  C 125.42428952785 117.5  116.5 107.392730971813  116.5 95  C 116.5 91.2331236120686  117.331722776408 87.5242036932404  118.940854867669 84.2216416151193  L 136.228167327542 95.4196510433492  A 0.5 0.5 0 0 0 136.997987578692 94.9551851423259 L 134.983043141625 72.5649031355907  Z " stroke-width="1" stroke="#ffffff" fill="none" />
  </g>
</svg>