<?xml version="1.0" encoding="utf-8"?>
<svg version="1.1" xmlns:xlink="http://www.w3.org/1999/xlink" width="41px" height="46px" xmlns="http://www.w3.org/2000/svg">
  <g transform="matrix(1 0 0 1 -247 -72 )">
    <path d="M 265.983043141635 72.5649031355899  C 266.48772519003 72.5218023912097  266.993733133875 72.5  267.5 72.5  C 278.57571047215 72.5  287.5 82.6072690281871  287.5 95  C 287.5 107.392730971813  278.57571047215 117.5  267.5 117.5  C 257.262613698064 117.5  248.744732201596 108.820730430274  247.622612461905 97.4870243533526  L 267.549672552085 95.4975265194634  A 0.5 0.5 0 0 0 267.997987578692 94.9551851423259 L 265.983043141625 72.5649031355907  Z " fill-rule="nonzero" fill="#0096fa" stroke="none" />
    <path d="M 265.983043141635 72.5649031355899  C 266.48772519003 72.5218023912097  266.993733133875 72.5  267.5 72.5  C 278.57571047215 72.5  287.5 82.6072690281871  287.5 95  C 287.5 107.392730971813  278.57571047215 117.5  267.5 117.5  C 257.262613698064 117.5  248.744732201596 108.820730430274  247.622612461905 97.4870243533526  L 267.549672552085 95.4975265194634  A 0.5 0.5 0 0 0 267.997987578692 94.9551851423259 L 265.983043141625 72.5649031355907  Z " stroke-width="1" stroke="#ffffff" fill="none" />
  </g>
</svg>