<?xml version="1.0" encoding="utf-8"?>
<svg version="1.1" xmlns:xlink="http://www.w3.org/1999/xlink" width="46px" height="46px" xmlns="http://www.w3.org/2000/svg">
  <g transform="matrix(1 0 0 1 -99 -72 )">
    <path d="M 122 72  C 134.88 72  145 82.12  145 95  C 145 107.88  134.88 118  122 118  C 109.12 118  99 107.88  99 95  C 99 82.12  109.12 72  122 72  Z " fill-rule="nonzero" fill="#e9e9e9" stroke="none" />
    <path d="M 122 72.5  C 134.6 72.5  144.5 82.4  144.5 95  C 144.5 107.6  134.6 117.5  122 117.5  C 109.4 117.5  99.5 107.6  99.5 95  C 99.5 82.4  109.4 72.5  122 72.5  Z " stroke-width="1" stroke="#ffffff" fill="none" />
  </g>
</svg>