<?xml version="1.0" encoding="utf-8"?>
<svg version="1.1" xmlns:xlink="http://www.w3.org/1999/xlink" width="46px" height="46px" xmlns="http://www.w3.org/2000/svg">
  <g transform="matrix(1 0 0 1 -99 -72 )">
    <path d="M 120.237773287101 72.5691159997807  C 120.823989353594 72.5230613899743  121.411849519175 72.5  122 72.5  C 134.426406871193 72.5  144.5 82.5735931288071  144.5 95  C 144.5 107.426406871193  134.426406871193 117.5  122 117.5  C 109.573593128807 117.5  99.5 107.426406871193  99.5 95  C 99.5 91.2172256365014  100.453681894042 87.4982802003319  102.269239185442 84.1857902015883  L 121.75 95.4330127018922  A 0.5 0.5 0 0 0 122.497470760719 94.9497720971043 L 120.237773287099 72.5691159997809  Z " fill-rule="nonzero" fill="#99d5fd" stroke="none" />
    <path d="M 120.237773287101 72.5691159997807  C 120.823989353594 72.5230613899743  121.411849519175 72.5  122 72.5  C 134.426406871193 72.5  144.5 82.5735931288071  144.5 95  C 144.5 107.426406871193  134.426406871193 117.5  122 117.5  C 109.573593128807 117.5  99.5 107.426406871193  99.5 95  C 99.5 91.2172256365014  100.453681894042 87.4982802003319  102.269239185442 84.1857902015883  L 121.75 95.4330127018922  A 0.5 0.5 0 0 0 122.497470760719 94.9497720971043 L 120.237773287099 72.5691159997809  Z " stroke-width="1" stroke="#ffffff" fill="none" />
  </g>
</svg>