<?xml version="1.0" encoding="utf-8"?>
<svg version="1.1" xmlns:xlink="http://www.w3.org/1999/xlink" width="46px" height="46px" xmlns="http://www.w3.org/2000/svg">
  <g transform="matrix(1 0 0 1 -248 -72 )">
    <path d="M 269.237773287101 72.5691159997807  C 269.823989353594 72.5230613899743  270.411849519175 72.5  271 72.5  C 283.426406871193 72.5  293.5 82.5735931288071  293.5 95  C 293.5 107.426406871193  283.426406871193 117.5  271 117.5  C 259.513542336856 117.5  249.900728523967 108.855287077445  248.638324566838 97.4918727986116  L 271.044318343823 95.4980320114218  A 0.5 0.5 0 0 0 271.497470760719 94.9497720971043 L 269.237773287099 72.5691159997809  Z " fill-rule="nonzero" fill="#0096fa" stroke="none" />
    <path d="M 269.237773287101 72.5691159997807  C 269.823989353594 72.5230613899743  270.411849519175 72.5  271 72.5  C 283.426406871193 72.5  293.5 82.5735931288071  293.5 95  C 293.5 107.426406871193  283.426406871193 117.5  271 117.5  C 259.513542336856 117.5  249.900728523967 108.855287077445  248.638324566838 97.4918727986116  L 271.044318343823 95.4980320114218  A 0.5 0.5 0 0 0 271.497470760719 94.9497720971043 L 269.237773287099 72.5691159997809  Z " stroke-width="1" stroke="#ffffff" fill="none" />
  </g>
</svg>