<?xml version="1.0" encoding="utf-8"?>
<svg version="1.1" xmlns:xlink="http://www.w3.org/1999/xlink" width="40px" height="37px" xmlns="http://www.w3.org/2000/svg">
  <g transform="matrix(1 0 0 1 -350 -79 )">
    <path d="M 24.1586538461538 18.0423177083333  C 24.463141025641 17.7371961805556  24.6153846153846 17.3758680555556  24.6153846153846 16.9583333333333  C 24.6153846153846 16.5407986111111  24.463141025641 16.1794704861111  24.1586538461538 15.8743489583333  C 23.8541666666667 15.5692274305556  23.4935897435897 15.4166666666667  23.0769230769231 15.4166666666667  L 16.9230769230769 15.4166666666667  C 16.5064102564103 15.4166666666667  16.1458333333333 15.5692274305556  15.8413461538462 15.8743489583333  C 15.536858974359 16.1794704861111  15.3846153846154 16.5407986111111  15.3846153846154 16.9583333333333  C 15.3846153846154 17.3758680555556  15.536858974359 17.7371961805556  15.8413461538462 18.0423177083333  C 16.1458333333333 18.3474392361111  16.5064102564103 18.5  16.9230769230769 18.5  L 23.0769230769231 18.5  C 23.4935897435897 18.5  23.8541666666667 18.3474392361111  24.1586538461538 18.0423177083333  Z M 38.0048076923077 11.2493489583333  C 38.3092948717949 11.5544704861111  38.4615384615385 11.9157986111111  38 12.3333333333333  L 38 35.4583333333333  C 38.4615384615385 35.8758680555556  38.3092948717949 36.2371961805556  38.0048076923077 36.5423177083333  C 37.7003205128205 36.8474392361111  37.3397435897436 37  36.9230769230769 37  L 3.07692307692308 37  C 2.66025641025641 37  2.29967948717949 36.8474392361111  1.99519230769231 36.5423177083333  C 1.69070512820513 36.2371961805556  1.53846153846154 35.8758680555556  2 35.4583333333333  L 2 12.3333333333333  C 1.53846153846154 11.9157986111111  1.69070512820513 11.5544704861111  1.99519230769231 11.2493489583333  C 2.29967948717949 10.9442274305556  2.66025641025641 10.7916666666667  3.07692307692308 11  L 36.9230769230769 11  C 37.3397435897436 10.7916666666667  37.7003205128205 10.9442274305556  38.0048076923077 11.2493489583333  Z M 39.5432692307692 0.457682291666665  C 39.8477564102564 0.762803819444439  40 1.12413194444444  40 1.54166666666667  L 40 7.70833333333333  C 40 8.12586805555555  39.8477564102564 8.48719618055555  39.5432692307692 8.79231770833333  C 39.2387820512821 9.09743923611111  38.8782051282051 9.25  38.4615384615385 9.25  L 1.53846153846154 9.25  C 1.12179487179487 9.25  0.761217948717949 9.09743923611111  0.456730769230769 8.79231770833333  C 0.15224358974359 8.48719618055555  0 8.12586805555555  0 7.70833333333333  L 0 1.54166666666667  C 0 1.12413194444444  0.15224358974359 0.762803819444439  0.456730769230769 0.457682291666665  C 0.761217948717949 0.152560763888887  1.12179487179487 0  1.53846153846154 0  L 38.4615384615385 0  C 38.8782051282051 0  39.2387820512821 0.152560763888887  39.5432692307692 0.457682291666665  Z " fill-rule="nonzero" fill="#555555" stroke="none" transform="matrix(1 0 0 1 350 79 )" />
  </g>
</svg>