<?xml version="1.0" encoding="utf-8"?>
<svg version="1.1" xmlns:xlink="http://www.w3.org/1999/xlink" width="40px" height="31px" xmlns="http://www.w3.org/2000/svg">
  <g transform="matrix(1 0 0 1 -350 -369 )">
    <path d="M 10.8035714285714 23.1619318181818  C 11.2202380952381 23.5729166666667  11.4285714285714 24.0719696969697  11.4285714285714 24.6590909090909  L 11.4285714285714 28.8863636363636  C 11.4285714285714 29.4734848484849  11.2202380952381 29.9725378787879  10.8035714285714 30.3835227272727  C 10.3869047619048 30.7945075757576  9.88095238095238 31  9.28571428571429 31  L 2.14285714285714 31  C 1.54761904761905 31  1.04166666666667 30.7945075757576  0.625 30.3835227272727  C 0.208333333333333 29.9725378787879  0 29.4734848484849  0 28.8863636363636  L 0 24.6590909090909  C 0 24.0719696969697  0.208333333333333 23.5729166666667  0.625 23.1619318181818  C 1.04166666666667 22.750946969697  1.54761904761905 22.5454545454545  2.14285714285714 22.5454545454545  L 9.28571428571429 22.5454545454545  C 9.88095238095238 22.5454545454545  10.3869047619048 22.750946969697  10.8035714285714 23.1619318181818  Z M 10.8035714285714 11.8892045454545  C 11.2202380952381 12.3001893939394  11.4285714285714 12.7992424242424  11.4285714285714 13.3863636363636  L 11.4285714285714 17.6136363636364  C 11.4285714285714 18.2007575757576  11.2202380952381 18.6998106060606  10.8035714285714 19.1107954545455  C 10.3869047619048 19.5217803030303  9.88095238095238 19.7272727272727  9.28571428571429 19.7272727272727  L 2.14285714285714 19.7272727272727  C 1.54761904761905 19.7272727272727  1.04166666666667 19.5217803030303  0.625 19.1107954545455  C 0.208333333333333 18.6998106060606  0 18.2007575757576  0 17.6136363636364  L 0 13.3863636363636  C 0 12.7992424242424  0.208333333333333 12.3001893939394  0.625 11.8892045454545  C 1.04166666666667 11.4782196969697  1.54761904761905 11.2727272727273  2.14285714285714 11.2727272727273  L 9.28571428571429 11.2727272727273  C 9.88095238095238 11.2727272727273  10.3869047619048 11.4782196969697  10.8035714285714 11.8892045454545  Z M 39.375 23.1619318181818  C 39.7916666666667 23.5729166666667  40 24.0719696969697  40 24.6590909090909  L 40 28.8863636363636  C 40 29.4734848484849  39.7916666666667 29.9725378787879  39.375 30.3835227272727  C 38.9583333333333 30.7945075757576  38.452380952381 31  37.8571428571429 31  L 16.4285714285714 31  C 15.8333333333333 31  15.327380952381 30.7945075757576  14.9107142857143 30.3835227272727  C 14.4940476190476 29.9725378787879  14.2857142857143 29.4734848484849  14.2857142857143 28.8863636363636  L 14.2857142857143 24.6590909090909  C 14.2857142857143 24.0719696969697  14.4940476190476 23.5729166666667  14.9107142857143 23.1619318181818  C 15.327380952381 22.750946969697  15.8333333333333 22.5454545454545  16.4285714285714 22  L 37.8571428571429 22  C 38.452380952381 22.5454545454545  38.9583333333333 22.750946969697  39.375 23.1619318181818  Z M 10.8035714285714 0.616477272727273  C 11.2202380952381 1.02746212121212  11.4285714285714 1.52651515151515  11.4285714285714 2.11363636363637  L 11.4285714285714 6.34090909090909  C 11.4285714285714 6.9280303030303  11.2202380952381 7.42708333333333  10.8035714285714 7.83806818181818  C 10.3869047619048 8.24905303030303  9.88095238095238 8.45454545454545  9.28571428571429 8.45454545454545  L 2.14285714285714 8.45454545454545  C 1.54761904761905 8.45454545454545  1.04166666666667 8.24905303030303  0.625 7.83806818181818  C 0.208333333333333 7.42708333333333  0 6.9280303030303  0 6.34090909090909  L 0 2.11363636363637  C 0 1.52651515151515  0.208333333333333 1.02746212121212  0.625 0.616477272727273  C 1.04166666666667 0.205492424242423  1.54761904761905 0  2.14285714285714 0  L 9.28571428571429 0  C 9.88095238095238 0  10.3869047619048 0.205492424242423  10.8035714285714 0.616477272727273  Z M 39.375 11.8892045454545  C 39.7916666666667 12.3001893939394  40 12.7992424242424  40 13.3863636363636  L 40 17.6136363636364  C 40 18.2007575757576  39.7916666666667 18.6998106060606  39.375 19.1107954545455  C 38.9583333333333 19.5217803030303  38.452380952381 19.7272727272727  37.8571428571429 19.7272727272727  L 16.4285714285714 19.7272727272727  C 15.8333333333333 19.7272727272727  15.327380952381 19.5217803030303  14.9107142857143 19.1107954545455  C 14.4940476190476 18.6998106060606  14.2857142857143 18.2007575757576  14.2857142857143 17.6136363636364  L 14.2857142857143 13.3863636363636  C 14.2857142857143 12.7992424242424  14.4940476190476 12.3001893939394  14.9107142857143 11.8892045454545  C 15.327380952381 11.4782196969697  15.8333333333333 11.2727272727273  16.4285714285714 11.2727272727273  L 37.8571428571429 11.2727272727273  C 38.452380952381 11.2727272727273  38.9583333333333 11.4782196969697  39.375 11.8892045454545  Z M 39.375 0.616477272727273  C 39.7916666666667 1.02746212121212  40 1.52651515151515  40 2.11363636363637  L 40 6.34090909090909  C 40 6.9280303030303  39.7916666666667 7.42708333333333  39.375 7.83806818181818  C 38.9583333333333 8.24905303030303  38.452380952381 8.45454545454545  37.8571428571429 9  L 16.4285714285714 9  C 15.8333333333333 8.45454545454545  15.327380952381 8.24905303030303  14.9107142857143 7.83806818181818  C 14.4940476190476 7.42708333333333  14.2857142857143 6.9280303030303  14.2857142857143 6.34090909090909  L 14.2857142857143 2.11363636363637  C 14.2857142857143 1.52651515151515  14.4940476190476 1.02746212121212  14.9107142857143 0.616477272727273  C 15.327380952381 0.205492424242423  15.8333333333333 0  16.4285714285714 0  L 37.8571428571429 0  C 38.452380952381 0  38.9583333333333 0.205492424242423  39.375 0.616477272727273  Z " fill-rule="nonzero" fill="#555555" stroke="none" transform="matrix(1 0 0 1 350 369 )" />
  </g>
</svg>