<?xml version="1.0" encoding="utf-8"?>
<svg version="1.1" xmlns:xlink="http://www.w3.org/1999/xlink" width="45px" height="45px" xmlns="http://www.w3.org/2000/svg">
  <g transform="matrix(1 0 0 1 -102 -84 )">
    <path d="M 122.788013878617 84.5667124320537  C 123.357530183553 84.5222592690452  123.928624983025 84.5  124.5 84.5  C 136.650264496277 84.5  146.5 94.3497355037225  146.5 106.5  C 146.5 118.650264496277  136.650264496277 128.5  124.5 128.5  C 112.349735503723 128.5  102.5 118.650264496277  102.5 106.5  C 102.5 102.804997211748  103.430619270935 99.1722797936876  105.202361304892 95.9358532604509  L 124.25 106.933012701892  A 0.5 0.5 0 0 0 124.997470760719 106.449772097104 L 122.788013878617 84.5667124320537  Z " fill-rule="nonzero" fill="#99d5fd" stroke="none" />
    <path d="M 122.788013878617 84.5667124320537  C 123.357530183553 84.5222592690452  123.928624983025 84.5  124.5 84.5  C 136.650264496277 84.5  146.5 94.3497355037225  146.5 106.5  C 146.5 118.650264496277  136.650264496277 128.5  124.5 128.5  C 112.349735503723 128.5  102.5 118.650264496277  102.5 106.5  C 102.5 102.804997211748  103.430619270935 99.1722797936876  105.202361304892 95.9358532604509  L 124.25 106.933012701892  A 0.5 0.5 0 0 0 124.997470760719 106.449772097104 L 122.788013878617 84.5667124320537  Z " stroke-width="1" stroke="#ffffff" fill="none" />
  </g>
</svg>