<?xml version="1.0" encoding="utf-8"?>
<svg version="1.1" xmlns:xlink="http://www.w3.org/1999/xlink" width="180px" height="60px" xmlns="http://www.w3.org/2000/svg">
  <g transform="matrix(1 0 0 1 -105 -826 )">
    <path d="M 105 826  L 285 826  L 285 886  L 105 886  L 105 826  " fill-rule="nonzero" fill="#cccccc" stroke="none" />
    <path d="M 109 830  L 281 830  L 281 882  L 109 882  L 109 830  " fill-rule="nonzero" fill="#ffffff" stroke="none" />
    <path d="M 203.1 844  C 200.58 844  198.6 842.02  198.6 839.5  C 198.6 836.98  200.58 835  203.1 835  C 205.62 835  207.6 836.98  207.6 839.5  C 207.6 842.02  205.62 844  203.1 844  " fill-rule="nonzero" fill="#cccccc" stroke="none" />
    <path d="M 111 881  L 111 854.05  L 153.25 841.8  L 212.4 871.2  L 246.2 849.15  L 280 871.2  L 280 881  L 111 881  " fill-rule="nonzero" fill="#169bd5" stroke="none" />
  </g>
</svg>