<?xml version="1.0" encoding="utf-8"?>
<svg version="1.1" xmlns:xlink="http://www.w3.org/1999/xlink" width="40px" height="31px" xmlns="http://www.w3.org/2000/svg">
  <g transform="matrix(1 0 0 1 -58 -84 )">
    <path d="M 22.8571428571429 25  L 22.8571428571429 28  L 37.1428571428571 28  L 37.1428571428571 25  L 22.8571428571429 25  Z M 14.2857142857143 14  L 14.2857142857143 17  L 37.1428571428571 17  L 37.1428571428571 14  L 14.2857142857143 14  Z M 28.5714285714286 2.81818181818182  L 28.5714285714286 5.63636363636363  L 37.1428571428571 5.63636363636363  L 37.1428571428571 2.81818181818182  L 28.5714285714286 2.81818181818182  Z M 39.5758928571429 22.9637784090909  C 39.858630952381 23.2426609848485  40 23.5729166666667  40 23.9545454545455  L 40 29.5909090909091  C 40 29.9725378787879  39.858630952381 30.3027935606061  39.5758928571429 30.5816761363636  C 39.2931547619048 30.8605587121212  38.9583333333333 31  38.5714285714286 31  L 1.42857142857143 31  C 1.04166666666667 31  0.706845238095238 30.8605587121212  0.424107142857143 30.5816761363636  C 0.141369047619048 30.3027935606061  0 29.9725378787879  0 29.5909090909091  L 0 23.9545454545455  C 0 23.5729166666667  0.141369047619048 23.2426609848485  0.424107142857143 22.9637784090909  C 0.706845238095238 22.6848958333333  1.04166666666667 22.5454545454545  1.42857142857143 22  L 38.5714285714286 22  C 38.9583333333333 22.5454545454545  39.2931547619048 22.6848958333333  39.5758928571429 22.9637784090909  Z M 39.5758928571429 11.6910511363636  C 39.858630952381 11.9699337121212  40 12.3001893939394  40 12.6818181818182  L 40 18.3181818181818  C 40 18.6998106060606  39.858630952381 19.0300662878788  39.5758928571429 19.3089488636364  C 39.2931547619048 19.5878314393939  38.9583333333333 19.7272727272727  38.5714285714286 19.7272727272727  L 1.42857142857143 19.7272727272727  C 1.04166666666667 19.7272727272727  0.706845238095238 19.5878314393939  0.424107142857143 19.3089488636364  C 0.141369047619048 19.0300662878788  0 18.6998106060606  0 18.3181818181818  L 0 12.6818181818182  C 0 12.3001893939394  0.141369047619048 11.9699337121212  0.424107142857143 11.6910511363636  C 0.706845238095238 11.4121685606061  1.04166666666667 11.2727272727273  1.42857142857143 11.2727272727273  L 38.5714285714286 11.2727272727273  C 38.9583333333333 11.2727272727273  39.2931547619048 11.4121685606061  39.5758928571429 11.6910511363636  Z M 39.5758928571429 0.418323863636365  C 39.858630952381 0.697206439393935  40 1.02746212121212  40 1.40909090909091  L 40 7.04545454545455  C 40 7.42708333333333  39.858630952381 7.75733901515151  39.5758928571429 8.03622159090909  C 39.2931547619048 8.31510416666666  38.9583333333333 8.45454545454545  38.5714285714286 9  L 1.42857142857143 9  C 1.04166666666667 8.45454545454545  0.706845238095238 8.31510416666666  0.424107142857143 8.03622159090909  C 0.141369047619048 7.75733901515151  0 7.42708333333333  0 7.04545454545455  L 0 1.40909090909091  C 0 1.02746212121212  0.141369047619048 0.697206439393935  0.424107142857143 0.418323863636365  C 0.706845238095238 0.139441287878785  1.04166666666667 0  1.42857142857143 0  L 38.5714285714286 0  C 38.9583333333333 0  39.2931547619048 0.139441287878785  39.5758928571429 0.418323863636365  Z " fill-rule="nonzero" fill="#555555" stroke="none" transform="matrix(1 0 0 1 58 84 )" />
  </g>
</svg>