<?xml version="1.0" encoding="utf-8"?>
<svg version="1.1" xmlns:xlink="http://www.w3.org/1999/xlink" width="45px" height="45px" xmlns="http://www.w3.org/2000/svg">
  <g transform="matrix(1 0 0 1 -247 -84 )">
    <path d="M 267.788013878617 84.5667124320537  C 268.357530183553 84.5222592690452  268.928624983025 84.5  269.5 84.5  C 281.650264496277 84.5  291.5 94.3497355037225  291.5 106.5  C 291.5 118.650264496277  281.650264496277 128.5  269.5 128.5  C 258.272518971803 128.5  248.875831210762 120.052993268728  247.636480568624 108.947543420827  L 269.544318343823 106.998032011422  A 0.5 0.5 0 0 0 269.997470760719 106.449772097104 L 267.788013878617 84.5667124320537  Z " fill-rule="nonzero" fill="#0096fa" stroke="none" />
    <path d="M 267.788013878617 84.5667124320537  C 268.357530183553 84.5222592690452  268.928624983025 84.5  269.5 84.5  C 281.650264496277 84.5  291.5 94.3497355037225  291.5 106.5  C 291.5 118.650264496277  281.650264496277 128.5  269.5 128.5  C 258.272518971803 128.5  248.875831210762 120.052993268728  247.636480568624 108.947543420827  L 269.544318343823 106.998032011422  A 0.5 0.5 0 0 0 269.997470760719 106.449772097104 L 267.788013878617 84.5667124320537  Z " stroke-width="1" stroke="#ffffff" fill="none" />
  </g>
</svg>