<?xml version="1.0" encoding="utf-8"?>
<svg version="1.1" xmlns:xlink="http://www.w3.org/1999/xlink" width="45px" height="45px" xmlns="http://www.w3.org/2000/svg">
  <g transform="matrix(1 0 0 1 -102 -84 )">
    <path d="M 124.5 84  C 137.1 84  147 93.9  147 106.5  C 147 119.1  137.1 129  124.5 129  C 111.9 129  102 119.1  102 106.5  C 102 93.9  111.9 84  124.5 84  Z " fill-rule="nonzero" fill="#e9e9e9" stroke="none" />
    <path d="M 124.5 84.5  C 136.82 84.5  146.5 94.18  146.5 106.5  C 146.5 118.82  136.82 128.5  124.5 128.5  C 112.18 128.5  102.5 118.82  102.5 106.5  C 102.5 94.18  112.18 84.5  124.5 84.5  Z " stroke-width="1" stroke="#ffffff" fill="none" />
  </g>
</svg>