<?xml version="1.0" encoding="utf-8"?>
<svg version="1.1" xmlns:xlink="http://www.w3.org/1999/xlink" width="15px" height="13px" xmlns="http://www.w3.org/2000/svg">
  <g transform="matrix(1 0 0 1 -50 -122 )">
    <path d="M 12.5195429945881 7.13707386363636  C 12.6398075766687 7.18631628787879  12.699939867709 7.27556818181818  12.699939867709 7.40482954545455  L 12.699939867709 10.3409090909091  C 12.699939867709 11.0733901515152  12.4458809380637 11.6996922348485  11.9377630787733 12.2198153409091  C 11.4296452194829 12.7399384469697  10.8177991581479 13  10.1022248947685 13  L 2.59771497294047 13  C 1.88214070956103 13  1.2702946482261 12.7399384469697  0.762176788935658 12.2198153409091  C 0.254058929645219 11.6996922348485  0 11.0733901515152  0 10.3409090909091  L 0 2.65909090909091  C 0 1.92660984848485  0.254058929645219 1.30030776515151  0.762176788935658 0.78018465909091  C 1.2702946482261 0.260061553030302  1.88214070956103 0  2.59771497294047 0  L 10.1022248947685 0  C 10.4810583283223 0  10.832832230908 0.0769412878787872  11.1575466025256 0.230823863636363  C 11.247745039086 0.273910984848484  11.3018641010222 0.344696969696969  11.3199037883343 0.443181818181818  C 11.3379434756464 0.547821969696969  11.3108839446783 0.637073863636363  11.2387251954299 0.7109375  L 10.7967528562838 1.16335227272727  C 10.7366205652435 1.2249053030303  10.6674684305472 1.25568181818182  10.5892964521948 1.25568181818182  C 10.5712567648827 1.25568181818182  10.5441972339146 1.24952651515151  10.5081178592904 1.23721590909091  C 10.3698135898978 1.20028409090909  10.2345159350571 1.18181818181818  10.1022248947685 1.18181818181818  L 2.59771497294047 1.18181818181818  C 2.20084185207456 1.18181818181818  1.86109440769693 1.3264678030303  1.57847263980758 1.61576704545455  C 1.29585087191822 1.90506628787879  1.15453998797354 2.25284090909091  1.15453998797354 2.65909090909091  L 1.15453998797354 10.3409090909091  C 1.15453998797354 10.7471590909091  1.29585087191822 11.0949337121212  1.57847263980758 11.3842329545455  C 1.86109440769693 11.6735321969697  2.20084185207456 11.8181818181818  2.59771497294047 11.8181818181818  L 10.1022248947685 11.8181818181818  C 10.4990980156344 11.8181818181818  10.838845460012 11.6735321969697  11.1214672279014 11.3842329545455  C 11.4040889957907 11.0949337121212  11.5453998797354 10.7471590909091  11.5453998797354 10.3409090909091  L 11.5453998797354 7.99573863636364  C 11.5453998797354 7.9157196969697  11.5724594107035 7.84801136363636  11.6265784726398 7.79261363636364  L 12.2038484666266 7.20170454545455  C 12.2639807576669 7.14015151515151  12.3331328923632 7.109375  12.4113048707156 7.109375  C 12.4473842453397 7.109375  12.4834636199639 7.11860795454546  12.5195429945881 7.13707386363636  Z M 15 2.36363636363636  C 15 2.56676136363636  14.9278412507517 2.7421875  14.783523752255 2.88991477272727  L 7.44137101623572 10.4055397727273  C 7.29705351773903 10.5532670454545  7.1256764882742 10.6271306818182  6.92723992784125 10.6271306818182  C 6.7288033674083 10.6271306818182  6.55742633794348 10.5532670454545  6.41310883944678 10.4055397727273  L 2.53457606734817 6.43536931818182  C 2.39025856885147 6.28764204545455  2.31809981960313 6.11221590909091  2.31809981960313 5.90909090909091  C 2.31809981960313 5.70596590909091  2.39025856885147 5.53053977272727  2.53457606734817 5.3828125  L 3.52675886951293 4.3671875  C 3.67107636800962 4.21946022727273  3.84245339747444 4.14559659090909  4.0408899579074 4.14559659090909  C 4.23932651834035 4.14559659090909  4.41070354780517 4.21946022727273  4.55502104630186 4.3671875  L 6.92723992784125 6.79545454545455  L 12.7630787733013 0.821732954545455  C 12.907396271798 0.674005681818182  13.0787733012628 0.600142045454545  13.2772098616957 0.600142045454545  C 13.4756464221287 0.600142045454545  13.6470234515935 0.674005681818182  13.7913409500902 0.821732954545455  L 14.783523752255 1.83735795454545  C 14.9278412507517 1.98508522727273  15 2.16051136363636  15 2.36363636363636  Z " fill-rule="nonzero" fill="#03b615" stroke="none" transform="matrix(1 0 0 1 50 122 )" />
  </g>
</svg>