<?xml version="1.0" encoding="utf-8"?>
<svg version="1.1" xmlns:xlink="http://www.w3.org/1999/xlink" width="15px" height="13px" xmlns="http://www.w3.org/2000/svg">
  <g transform="matrix(1 0 0 1 -195 -122 )">
    <path d="M 10.60546875 8.125  C 10.60546875 8.19835069444444  10.5775669642857 8.26323784722222  10.5217633928571 8.31966145833333  L 9.29966517857143 9.55533854166667  C 9.24386160714286 9.61176215277778  9.1796875 9.63997395833333  9.10714285714286 9.63997395833333  C 9.03459821428572 9.63997395833333  8.97042410714286 9.61176215277778  8.91462053571428 9.55533854166667  L 7.5 8.125  L 6.08537946428571 9.55533854166667  C 6.02957589285714 9.61176215277778  5.96540178571429 9.63997395833333  5.89285714285714 9.63997395833333  C 5.8203125 9.63997395833333  5.75613839285714 9.61176215277778  5.70033482142857 9.55533854166667  L 4.47823660714286 8.31966145833333  C 4.42243303571429 8.26323784722222  4.39453125 8.19835069444444  4.39453125 8.125  C 4.39453125 8.05164930555556  4.42243303571429 7.98676215277778  4.47823660714286 7.93033854166667  L 5.89285714285714 6.5  L 4.47823660714286 5.06966145833333  C 4.42243303571429 5.01323784722222  4.39453125 4.94835069444444  4.39453125 4.875  C 4.39453125 4.80164930555556  4.42243303571429 4.73676215277778  4.47823660714286 4.68033854166667  L 5.70033482142857 3.44466145833333  C 5.75613839285714 3.38823784722222  5.8203125 3.36002604166667  5.89285714285714 3.36002604166667  C 5.96540178571429 3.36002604166667  6.02957589285714 3.38823784722222  6.08537946428571 3.44466145833333  L 7.5 4.875  L 8.91462053571428 3.44466145833333  C 8.97042410714286 3.38823784722222  9.03459821428572 3.36002604166667  9.10714285714286 3.36002604166667  C 9.1796875 3.36002604166667  9.24386160714286 3.38823784722222  9.29966517857143 3.44466145833333  L 10.5217633928571 4.68033854166667  C 10.5775669642857 4.73676215277778  10.60546875 4.80164930555556  10.60546875 4.875  C 10.60546875 4.94835069444444  10.5775669642857 5.01323784722222  10.5217633928571 5.06966145833333  L 9.10714285714286 6.5  L 10.5217633928571 7.93033854166667  C 10.5775669642857 7.98676215277778  10.60546875 8.05164930555556  10.60546875 8.125  Z M 2.14285714285714 2.16666666666667  L 2.14285714285714 10.8333333333333  L 12.8571428571429 10.8333333333333  L 12.8571428571429 2.16666666666667  L 2.14285714285714 2.16666666666667  Z M 14.6065848214286 0.397786458333334  C 14.8688616071429 0.662977430555555  15 0.981770833333334  15 1.35416666666667  L 15 11.6458333333333  C 15 12.0182291666667  14.8688616071429 12.3370225694444  14.6065848214286 12.6022135416667  C 14.3443080357143 12.8674045138889  14.0290178571429 13  13.6607142857143 13  L 1.33928571428571 13  C 0.970982142857143 13  0.655691964285714 12.8674045138889  0.393415178571429 12.6022135416667  C 0.131138392857143 12.3370225694444  0 12.0182291666667  0 11.6458333333333  L 0 1.35416666666667  C 0 0.981770833333334  0.131138392857143 0.662977430555555  0.393415178571429 0.397786458333334  C 0.655691964285714 0.13259548611111  0.970982142857143 0  1.33928571428571 0  L 13.6607142857143 0  C 14.0290178571429 0  14.3443080357143 0.13259548611111  14.6065848214286 0.397786458333334  Z " fill-rule="nonzero" fill="#d9001b" stroke="none" transform="matrix(1 0 0 1 195 122 )" />
  </g>
</svg>