<?xml version="1.0" encoding="utf-8"?>
<svg version="1.1" xmlns:xlink="http://www.w3.org/1999/xlink" width="40px" height="31px" xmlns="http://www.w3.org/2000/svg">
  <g transform="matrix(1 0 0 1 -60 -399 )">
    <path d="M 8.359375 22.7546164772727  C 8.50074404761905 22.8940577651515  8.57142857142857 23.0591856060606  8.57142857142857 23.25  L 8.57142857142857 24.6590909090909  C 8.57142857142857 24.8499053030303  8.50074404761905 25.0150331439394  8.359375 25.1544744318182  C 8.21800595238095 25.293915719697  8.05059523809524 25.3636363636364  7.85714285714286 25.3636363636364  L 6.42857142857143 25.3636363636364  C 6.23511904761905 25.3636363636364  6.06770833333333 25.293915719697  5.92633928571429 25.1544744318182  C 5.78497023809524 25.0150331439394  5.71428571428571 24.8499053030303  5.71428571428571 24.6590909090909  L 5.71428571428571 23.25  C 5.71428571428571 23.0591856060606  5.78497023809524 22.8940577651515  5.92633928571429 22.7546164772727  C 6.06770833333333 22.6151751893939  6.23511904761905 22.5454545454545  6.42857142857143 22.5454545454545  L 7.85714285714286 22.5454545454545  C 8.05059523809524 22.5454545454545  8.21800595238095 22.6151751893939  8.359375 22.7546164772727  Z M 8.359375 17.1182528409091  C 8.50074404761905 17.2576941287879  8.57142857142857 17.422821969697  8.57142857142857 17.6136363636364  L 8.57142857142857 19.0227272727273  C 8.57142857142857 19.2135416666667  8.50074404761905 19.3786695075758  8.359375 19.5181107954545  C 8.21800595238095 19.6575520833333  8.05059523809524 19.7272727272727  7.85714285714286 19.7272727272727  L 6.42857142857143 19.7272727272727  C 6.23511904761905 19.7272727272727  6.06770833333333 19.6575520833333  5.92633928571429 19.5181107954545  C 5.78497023809524 19.3786695075758  5.71428571428571 19.2135416666667  5.71428571428571 19.0227272727273  L 5.71428571428571 17.6136363636364  C 5.71428571428571 17.422821969697  5.78497023809524 17.2576941287879  5.92633928571429 17.1182528409091  C 6.06770833333333 16.9788115530303  6.23511904761905 16.9090909090909  6.42857142857143 16.9090909090909  L 7.85714285714286 16.9090909090909  C 8.05059523809524 16.9090909090909  8.21800595238095 16.9788115530303  8.359375 17.1182528409091  Z M 8.359375 11.4818892045455  C 8.50074404761905 11.6213304924242  8.57142857142857 11.7864583333333  8.57142857142857 11.9772727272727  L 8.57142857142857 13.3863636363636  C 8.57142857142857 13.577178030303  8.50074404761905 13.7423058712121  8.359375 13.8817471590909  C 8.21800595238095 14.0211884469697  8.05059523809524 14.0909090909091  7.85714285714286 14.0909090909091  L 6.42857142857143 14.0909090909091  C 6.23511904761905 14.0909090909091  6.06770833333333 14.0211884469697  5.92633928571429 13.8817471590909  C 5.78497023809524 13.7423058712121  5.71428571428571 13.577178030303  5.71428571428571 13.3863636363636  L 5.71428571428571 11.9772727272727  C 5.71428571428571 11.7864583333333  5.78497023809524 11.6213304924242  5.92633928571429 11.4818892045455  C 6.06770833333333 11.3424479166667  6.23511904761905 11.2727272727273  6.42857142857143 11.2727272727273  L 7.85714285714286 11.2727272727273  C 8.05059523809524 11.2727272727273  8.21800595238095 11.3424479166667  8.359375 11.4818892045455  Z M 34.0736607142857 22.7546164772727  C 34.2150297619048 22.8940577651515  34.2857142857143 23.0591856060606  34.2857142857143 23.25  L 34.2857142857143 24.6590909090909  C 34.2857142857143 24.8499053030303  34.2150297619048 25.0150331439394  34.0736607142857 25.1544744318182  C 33.9322916666667 25.293915719697  33.764880952381 25.3636363636364  33.5714285714286 25  L 12.1428571428571 25  C 11.9494047619048 25.3636363636364  11.781994047619 25.293915719697  11.640625 25.1544744318182  C 11.499255952381 25.0150331439394  11.4285714285714 24.8499053030303  11.4285714285714 24.6590909090909  L 11.4285714285714 23.25  C 11.4285714285714 23.0591856060606  11.499255952381 22.8940577651515  11.640625 22.7546164772727  C 11.781994047619 22.6151751893939  11.9494047619048 22.5454545454545  12.1428571428571 22  L 33.5714285714286 22  C 33.764880952381 22.5454545454545  33.9322916666667 22.6151751893939  34.0736607142857 22.7546164772727  Z M 34.0736607142857 17.1182528409091  C 34.2150297619048 17.2576941287879  34.2857142857143 17.422821969697  34.2857142857143 17.6136363636364  L 34.2857142857143 19.0227272727273  C 34.2857142857143 19.2135416666667  34.2150297619048 19.3786695075758  34.0736607142857 19.5181107954545  C 33.9322916666667 19.6575520833333  33.764880952381 19.7272727272727  33.5714285714286 19.7272727272727  L 12.1428571428571 19.7272727272727  C 11.9494047619048 19.7272727272727  11.781994047619 19.6575520833333  11.640625 19.5181107954545  C 11.499255952381 19.3786695075758  11.4285714285714 19.2135416666667  11.4285714285714 19.0227272727273  L 11.4285714285714 17.6136363636364  C 11.4285714285714 17.422821969697  11.499255952381 17.2576941287879  11.640625 17.1182528409091  C 11.781994047619 16.9788115530303  11.9494047619048 16.9090909090909  12.1428571428571 17  L 33.5714285714286 17  C 33.764880952381 16.9090909090909  33.9322916666667 16.9788115530303  34.0736607142857 17.1182528409091  Z M 34.0736607142857 11.4818892045455  C 34.2150297619048 11.6213304924242  34.2857142857143 11.7864583333333  34.2857142857143 11.9772727272727  L 34.2857142857143 13.3863636363636  C 34.2857142857143 13.577178030303  34.2150297619048 13.7423058712121  34.0736607142857 13.8817471590909  C 33.9322916666667 14.0211884469697  33.764880952381 14.0909090909091  33.5714285714286 14  L 12.1428571428571 14  C 11.9494047619048 14.0909090909091  11.781994047619 14.0211884469697  11.640625 13.8817471590909  C 11.499255952381 13.7423058712121  11.4285714285714 13.577178030303  11.4285714285714 13.3863636363636  L 11.4285714285714 11.9772727272727  C 11.4285714285714 11.7864583333333  11.499255952381 11.6213304924242  11.640625 11.4818892045455  C 11.781994047619 11.3424479166667  11.9494047619048 11.2727272727273  12.1428571428571 11.2727272727273  L 33.5714285714286 11.2727272727273  C 33.764880952381 11.2727272727273  33.9322916666667 11.3424479166667  34.0736607142857 11.4818892045455  Z M 36.9308035714286 27.97265625  C 37.0721726190476 27.8332149621212  37.1428571428571 27.6680871212121  37 27.4772727272727  L 37 9.15909090909091  C 37.1428571428571 8.96827651515151  37.0721726190476 8.80314867424242  36.9308035714286 8.66370738636363  C 36.7894345238095 8.52426609848485  36.6220238095238 8.45454545454545  36.4285714285714 9  L 3.57142857142857 9  C 3.37797619047619 8.45454545454545  3.21056547619048 8.52426609848485  3.06919642857143 8.66370738636363  C 2.92782738095238 8.80314867424242  2.85714285714286 8.96827651515151  3 9.15909090909091  L 3 27.4772727272727  C 2.85714285714286 27.6680871212121  2.92782738095238 27.8332149621212  3.06919642857143 27.97265625  C 3.21056547619048 28.1120975378788  3.37797619047619 28.1818181818182  3.57142857142857 28  L 36.4285714285714 28  C 36.6220238095238 28.1818181818182  36.7894345238095 28.1120975378788  36.9308035714286 27.97265625  Z M 38.9508928571429 1.03480113636363  C 39.6502976190476 1.72466856060606  40 2.55397727272727  40 3.52272727272727  L 40 27.4772727272727  C 40 28.4460227272727  39.6502976190476 29.2753314393939  38.9508928571429 29.9651988636364  C 38.2514880952381 30.6550662878788  37.4107142857143 31  36.4285714285714 31  L 3.57142857142857 31  C 2.58928571428571 31  1.7485119047619 30.6550662878788  1.04910714285714 29.9651988636364  C 0.349702380952381 29.2753314393939  0 28.4460227272727  0 27.4772727272727  L 0 3.52272727272727  C 0 2.55397727272727  0.349702380952381 1.72466856060606  1.04910714285714 1.03480113636363  C 1.7485119047619 0.344933712121208  2.58928571428571 0  3.57142857142857 0  L 36.4285714285714 0  C 37.4107142857143 0  38.2514880952381 0.344933712121208  38.9508928571429 1.03480113636363  Z " fill-rule="nonzero" fill="#aaaaaa" stroke="none" transform="matrix(1 0 0 1 60 399 )" />
  </g>
</svg>