<?xml version="1.0" encoding="utf-8"?>
<svg version="1.1" xmlns:xlink="http://www.w3.org/1999/xlink" width="40px" height="31px" xmlns="http://www.w3.org/2000/svg">
  <g transform="matrix(1 0 0 1 -205 -399 )">
    <path d="M 7.32142857142857 23.7784090909091  C 8.15476190476191 24.6003787878788  8.57142857142857 25.5984848484849  8.57142857142857 26.7727272727273  C 8.57142857142857 27.9469696969697  8.15476190476191 28.9450757575758  7.32142857142857 29.7670454545455  C 6.48809523809524 30.5890151515151  5.47619047619048 31  4.28571428571429 31  C 3.0952380952381 31  2.08333333333333 30.5890151515151  1.25 29.7670454545455  C 0.416666666666667 28.9450757575758  0 27.9469696969697  0 26.7727272727273  C 0 25.5984848484849  0.416666666666667 24.6003787878788  1.25 23.7784090909091  C 2.08333333333333 22.9564393939394  3.0952380952381 22.5454545454545  4.28571428571429 22.5454545454545  C 5.47619047619048 22.5454545454545  6.48809523809524 22.9564393939394  7.32142857142857 23.7784090909091  Z M 7.32142857142857 12.5056818181818  C 8.15476190476191 13.3276515151515  8.57142857142857 14.3257575757576  8.57142857142857 15.5  C 8.57142857142857 16.6742424242424  8.15476190476191 17.6723484848485  7.32142857142857 18.4943181818182  C 6.48809523809524 19.3162878787879  5.47619047619048 19.7272727272727  4.28571428571429 19.7272727272727  C 3.0952380952381 19.7272727272727  2.08333333333333 19.3162878787879  1.25 18.4943181818182  C 0.416666666666667 17.6723484848485  0 16.6742424242424  0 15.5  C 0 14.3257575757576  0.416666666666667 13.3276515151515  1.25 12.5056818181818  C 2.08333333333333 11.6837121212121  3.0952380952381 11.2727272727273  4.28571428571429 11.2727272727273  C 5.47619047619048 11.2727272727273  6.48809523809524 11.6837121212121  7.32142857142857 12.5056818181818  Z M 39.7879464285714 24.1637073863636  C 39.9293154761905 24.3031486742424  40 24.4682765151515  40 24.6590909090909  L 40 28.8863636363636  C 40 29.077178030303  39.9293154761905 29.2423058712121  39.7879464285714 29.3817471590909  C 39.6465773809524 29.5211884469697  39.4791666666667 29.5909090909091  39.2857142857143 29  L 12.1428571428571 29  C 11.9494047619048 29.5909090909091  11.781994047619 29.5211884469697  11.640625 29.3817471590909  C 11.499255952381 29.2423058712121  11.4285714285714 29.077178030303  11.4285714285714 28.8863636363636  L 11.4285714285714 24.6590909090909  C 11.4285714285714 24.4682765151515  11.499255952381 24.3031486742424  11.640625 24.1637073863636  C 11.781994047619 24.0242660984849  11.9494047619048 23.9545454545455  12.1428571428571 24  L 39.2857142857143 24  C 39.4791666666667 23.9545454545455  39.6465773809524 24.0242660984849  39.7879464285714 24.1637073863636  Z M 7.32142857142857 1.23295454545455  C 8.15476190476191 2.05492424242424  8.57142857142857 3.0530303030303  8.57142857142857 4.22727272727273  C 8.57142857142857 5.40151515151515  8.15476190476191 6.39962121212121  7.32142857142857 7.22159090909091  C 6.48809523809524 8.0435606060606  5.47619047619048 8.45454545454545  4.28571428571429 8.45454545454545  C 3.0952380952381 8.45454545454545  2.08333333333333 8.0435606060606  1.25 7.22159090909091  C 0.416666666666667 6.39962121212121  0 5.40151515151515  0 4.22727272727273  C 0 3.0530303030303  0.416666666666667 2.05492424242424  1.25 1.23295454545455  C 2.08333333333333 0.410984848484846  3.0952380952381 0  4.28571428571429 0  C 5.47619047619048 0  6.48809523809524 0.410984848484846  7.32142857142857 1.23295454545455  Z M 39.7879464285714 12.8909801136364  C 39.9293154761905 13.0304214015152  40 13.1955492424242  40 13.3863636363636  L 40 17.6136363636364  C 40 17.8044507575758  39.9293154761905 17.9695785984848  39.7879464285714 18.1090198863636  C 39.6465773809524 18.2484611742424  39.4791666666667 18.3181818181818  39.2857142857143 18  L 12.1428571428571 18  C 11.9494047619048 18.3181818181818  11.781994047619 18.2484611742424  11.640625 18.1090198863636  C 11.499255952381 17.9695785984848  11.4285714285714 17.8044507575758  11.4285714285714 17.6136363636364  L 11.4285714285714 13.3863636363636  C 11.4285714285714 13.1955492424242  11.499255952381 13.0304214015152  11.640625 12.8909801136364  C 11.781994047619 12.7515388257576  11.9494047619048 12.6818181818182  12.1428571428571 13  L 39.2857142857143 13  C 39.4791666666667 12.6818181818182  39.6465773809524 12.7515388257576  39.7879464285714 12.8909801136364  Z M 39.7879464285714 1.61825284090909  C 39.9293154761905 1.75769412878788  40 1.92282196969697  40 2.11363636363637  L 40 6.34090909090909  C 40 6.53172348484848  39.9293154761905 6.69685132575757  39.7879464285714 6.83629261363637  C 39.6465773809524 6.97573390151515  39.4791666666667 7.04545454545455  39.2857142857143 7  L 12.1428571428571 7  C 11.9494047619048 7.04545454545455  11.781994047619 6.97573390151515  11.640625 6.83629261363637  C 11.499255952381 6.69685132575757  11.4285714285714 6.53172348484848  11.4285714285714 6.34090909090909  L 11.4285714285714 2.11363636363637  C 11.4285714285714 1.92282196969697  11.499255952381 1.75769412878788  11.640625 1.61825284090909  C 11.781994047619 1.4788115530303  11.9494047619048 1.40909090909091  12.1428571428571 2  L 39.2857142857143 2  C 39.4791666666667 1.40909090909091  39.6465773809524 1.4788115530303  39.7879464285714 1.61825284090909  Z " fill-rule="nonzero" fill="#aaaaaa" stroke="none" transform="matrix(1 0 0 1 205 399 )" />
  </g>
</svg>