<?xml version="1.0" encoding="utf-8"?>
<svg version="1.1" xmlns:xlink="http://www.w3.org/1999/xlink" width="28px" height="28px" xmlns="http://www.w3.org/2000/svg">
  <defs>
    <filter x="404px" y="2270px" width="28px" height="28px" filterUnits="userSpaceOnUse" id="filter297">
      <feOffset dx="0" dy="1" in="SourceAlpha" result="shadowOffsetInner" />
      <feGaussianBlur stdDeviation="1" in="shadowOffsetInner" result="shadowGaussian" />
      <feComposite in2="shadowGaussian" operator="atop" in="SourceAlpha" result="shadowComposite" />
      <feColorMatrix type="matrix" values="0 0 0 0 0  0 0 0 0 0  0 0 0 0 0  0 0 0 0.349019607843137 0  " in="shadowComposite" />
    </filter>
    <g id="widget298">
      <path d="M 418 2271  C 424.72 2271  430 2276.28  430 2283  C 430 2289.72  424.72 2295  418 2295  C 411.28 2295  406 2289.72  406 2283  C 406 2276.28  411.28 2271  418 2271  Z " fill-rule="nonzero" fill="#ffffff" stroke="none" />
      <path d="M 418 2271.5  C 424.44 2271.5  429.5 2276.56  429.5 2283  C 429.5 2289.44  424.44 2294.5  418 2294.5  C 411.56 2294.5  406.5 2289.44  406.5 2283  C 406.5 2276.56  411.56 2271.5  418 2271.5  Z " stroke-width="1" stroke="#d9d9d9" fill="none" />
    </g>
  </defs>
  <g transform="matrix(1 0 0 1 -404 -2270 )">
    <use xlink:href="#widget298" filter="url(#filter297)" />
    <use xlink:href="#widget298" />
  </g>
</svg>