<?xml version="1.0" encoding="utf-8"?>
<svg version="1.1" xmlns:xlink="http://www.w3.org/1999/xlink" width="64px" height="64px" xmlns="http://www.w3.org/2000/svg">
  <g transform="matrix(1 0 0 1 -197 -116 )">
    <path d="M 229 116  C 246.92 116  261 130.08  261 148  C 261 165.92  246.92 180  229 180  C 211.08 180  197 165.92  197 148  C 197 130.08  211.08 116  229 116  Z " fill-rule="nonzero" fill="#e9e9e9" stroke="none" />
    <path d="M 229 116.5  C 246.64 116.5  260.5 130.36  260.5 148  C 260.5 165.64  246.64 179.5  229 179.5  C 211.36 179.5  197.5 165.64  197.5 148  C 197.5 130.36  211.36 116.5  229 116.5  Z " stroke-width="1" stroke="#ffffff" fill="none" />
  </g>
</svg>