<?xml version="1.0" encoding="utf-8"?>
<svg version="1.1" xmlns:xlink="http://www.w3.org/1999/xlink" width="39px" height="39px" xmlns="http://www.w3.org/2000/svg">
  <g transform="matrix(1 0 0 1 -209 -128 )">
    <path d="M 228.5 128  C 239.42 128  248 136.58  248 147.5  C 248 158.42  239.42 167  228.5 167  C 217.58 167  209 158.42  209 147.5  C 209 136.58  217.58 128  228.5 128  Z " fill-rule="nonzero" fill="#ffffff" stroke="none" />
    <path d="M 228.5 128.5  C 239.14 128.5  247.5 136.86  247.5 147.5  C 247.5 158.14  239.14 166.5  228.5 166.5  C 217.86 166.5  209.5 158.14  209.5 147.5  C 209.5 136.86  217.86 128.5  228.5 128.5  Z " stroke-width="1" stroke="#ffffff" fill="none" />
  </g>
</svg>