<?xml version="1.0" encoding="utf-8"?>
<svg version="1.1" xmlns:xlink="http://www.w3.org/1999/xlink" width="64px" height="64px" xmlns="http://www.w3.org/2000/svg">
  <g transform="matrix(1 0 0 1 -209 -86 )">
    <path d="M 238.333511537484 86.6130626006209  C 239.22026999089 86.53772771924  240.109897522075 86.5  241 86.5  C 258.39696961967 86.5  272.5 100.60303038033  272.5 118  C 272.5 135.39696961967  258.39696961967 149.5  241 149.5  C 223.60303038033 149.5  209.5 135.39696961967  209.5 118  C 209.5 112.637355364267  210.869029054164 107.366338404969  213.473635776507 102.684996474949  L 240.75 118.433012701892  A 0.5 0.5 0 0 0 241.497470760719 117.949772097104 L 238.333511537502 86.6130626006193  Z " fill-rule="nonzero" fill="#99d5fd" stroke="none" />
    <path d="M 238.333511537484 86.6130626006209  C 239.22026999089 86.53772771924  240.109897522075 86.5  241 86.5  C 258.39696961967 86.5  272.5 100.60303038033  272.5 118  C 272.5 135.39696961967  258.39696961967 149.5  241 149.5  C 223.60303038033 149.5  209.5 135.39696961967  209.5 118  C 209.5 112.637355364267  210.869029054164 107.366338404969  213.473635776507 102.684996474949  L 240.75 118.433012701892  A 0.5 0.5 0 0 0 241.497470760719 117.949772097104 L 238.333511537502 86.6130626006193  Z " stroke-width="1" stroke="#ffffff" fill="none" />
  </g>
</svg>