<?xml version="1.0" encoding="utf-8"?>
<svg version="1.1" xmlns:xlink="http://www.w3.org/1999/xlink" width="64px" height="64px" xmlns="http://www.w3.org/2000/svg">
  <g transform="matrix(1 0 0 1 -197 -116 )">
    <path d="M 226.333511537484 116.613062600621  C 227.22026999089 116.53772771924  228.109897522075 116.5  229 116.5  C 246.39696961967 116.5  260.5 130.60303038033  260.5 148  C 260.5 165.39696961967  246.39696961967 179.5  229 179.5  C 211.60303038033 179.5  197.5 165.39696961967  197.5 148  C 197.5 142.637355364267  198.869029054164 137.366338404969  201.473635776507 132.684996474949  L 228.75 148.433012701892  A 0.5 0.5 0 0 0 229.497470760719 147.949772097104 L 226.333511537502 116.613062600619  Z " fill-rule="nonzero" fill="#99d5fd" stroke="none" />
    <path d="M 226.333511537484 116.613062600621  C 227.22026999089 116.53772771924  228.109897522075 116.5  229 116.5  C 246.39696961967 116.5  260.5 130.60303038033  260.5 148  C 260.5 165.39696961967  246.39696961967 179.5  229 179.5  C 211.60303038033 179.5  197.5 165.39696961967  197.5 148  C 197.5 142.637355364267  198.869029054164 137.366338404969  201.473635776507 132.684996474949  L 228.75 148.433012701892  A 0.5 0.5 0 0 0 229.497470760719 147.949772097104 L 226.333511537502 116.613062600619  Z " stroke-width="1" stroke="#ffffff" fill="none" />
  </g>
</svg>