<?xml version="1.0" encoding="utf-8"?>
<svg version="1.1" xmlns:xlink="http://www.w3.org/1999/xlink" width="64px" height="64px" xmlns="http://www.w3.org/2000/svg">
  <g transform="matrix(1 0 0 1 -432 -116 )">
    <path d="M 461.333511537484 116.613062600621  C 462.22026999089 116.53772771924  463.109897522075 116.5  464 116.5  C 481.39696961967 116.5  495.5 130.60303038033  495.5 148  C 495.5 165.39696961967  481.39696961967 179.5  464 179.5  C 447.852014491796 179.5  434.349015581785 167.296426827724  432.672190417079 151.289741636116  L 464.044318343823 148.498032011422  A 0.5 0.5 0 0 0 464.497470760719 147.949772097104 L 461.333511537502 116.613062600619  Z " fill-rule="nonzero" fill="#0096fa" stroke="none" />
    <path d="M 461.333511537484 116.613062600621  C 462.22026999089 116.53772771924  463.109897522075 116.5  464 116.5  C 481.39696961967 116.5  495.5 130.60303038033  495.5 148  C 495.5 165.39696961967  481.39696961967 179.5  464 179.5  C 447.852014491796 179.5  434.349015581785 167.296426827724  432.672190417079 151.289741636116  L 464.044318343823 148.498032011422  A 0.5 0.5 0 0 0 464.497470760719 147.949772097104 L 461.333511537502 116.613062600619  Z " stroke-width="1" stroke="#ffffff" fill="none" />
  </g>
</svg>