<?xml version="1.0" encoding="utf-8"?>
<svg version="1.1" xmlns:xlink="http://www.w3.org/1999/xlink" width="64px" height="64px" xmlns="http://www.w3.org/2000/svg">
  <g transform="matrix(1 0 0 1 -444 -86 )">
    <path d="M 473.333511537484 86.6130626006209  C 474.22026999089 86.53772771924  475.109897522075 86.5  476 86.5  C 493.39696961967 86.5  507.5 100.60303038033  507.5 118  C 507.5 135.39696961967  493.39696961967 149.5  476 149.5  C 459.852014491796 149.5  446.349015581785 137.296426827724  444.672190417079 121.289741636116  L 476.044318343823 118.498032011422  A 0.5 0.5 0 0 0 476.497470760719 117.949772097104 L 473.333511537502 86.6130626006193  Z " fill-rule="nonzero" fill="#0096fa" stroke="none" />
    <path d="M 473.333511537484 86.6130626006209  C 474.22026999089 86.53772771924  475.109897522075 86.5  476 86.5  C 493.39696961967 86.5  507.5 100.60303038033  507.5 118  C 507.5 135.39696961967  493.39696961967 149.5  476 149.5  C 459.852014491796 149.5  446.349015581785 137.296426827724  444.672190417079 121.289741636116  L 476.044318343823 118.498032011422  A 0.5 0.5 0 0 0 476.497470760719 117.949772097104 L 473.333511537502 86.6130626006193  Z " stroke-width="1" stroke="#ffffff" fill="none" />
  </g>
</svg>