<?xml version="1.0" encoding="utf-8"?>
<svg version="1.1" xmlns:xlink="http://www.w3.org/1999/xlink" width="8px" height="8px" xmlns="http://www.w3.org/2000/svg">
  <g transform="matrix(1 0 0 1 -308 -2110 )">
    <path d="M 312 2110  C 314.24 2110  316 2111.76  316 2114  C 316 2116.24  314.24 2118  312 2118  C 309.76 2118  308 2116.24  308 2114  C 308 2111.76  309.76 2110  312 2110  Z " fill-rule="nonzero" fill="#1890ff" stroke="none" />
    <path d="M 312 2110.5  C 313.96 2110.5  315.5 2112.04  315.5 2114  C 315.5 2115.96  313.96 2117.5  312 2117.5  C 310.04 2117.5  308.5 2115.96  308.5 2114  C 308.5 2112.04  310.04 2110.5  312 2110.5  Z " stroke-width="1" stroke="#ffffff" fill="none" />
  </g>
</svg>