<?xml version="1.0" encoding="utf-8"?>
<svg version="1.1" xmlns:xlink="http://www.w3.org/1999/xlink" width="150px" height="32px" xmlns="http://www.w3.org/2000/svg">
  <defs>
    <mask fill="white" id="clip6">
      <path d="M 0 28  L 0 4  C 0 1.76  1.31999999999999 0  3 0  L 147 0  C 148.68 0  150 1.76  150 4  L 150 28  C 150 30.24  148.68 32  147 32  L 62.2058823529399 32  L 3 32  C 1.31999999999999 32  0 30.24  0 28  Z " fill-rule="evenodd" />
    </mask>
  </defs>
  <g transform="matrix(1 0 0 1 -1110 -16 )">
    <path d="M 0 28  L 0 4  C 0 1.76  1.31999999999999 0  3 0  L 147 0  C 148.68 0  150 1.76  150 4  L 150 28  C 150 30.24  148.68 32  147 32  L 62.2058823529399 32  L 3 32  C 1.31999999999999 32  0 30.24  0 28  Z " fill-rule="nonzero" fill="#ffffff" stroke="none" transform="matrix(1 0 0 1 1110 16 )" />
    <path d="M 0 28  L 0 4  C 0 1.76  1.31999999999999 0  3 0  L 147 0  C 148.68 0  150 1.76  150 4  L 150 28  C 150 30.24  148.68 32  147 32  L 62.2058823529399 32  L 3 32  C 1.31999999999999 32  0 30.24  0 28  Z " stroke-width="2" stroke="#d9d9d9" fill="none" transform="matrix(1 0 0 1 1110 16 )" mask="url(#clip6)" />
  </g>
</svg>