<?xml version="1.0" encoding="utf-8"?>
<svg version="1.1" xmlns:xlink="http://www.w3.org/1999/xlink" width="88px" height="32px" xmlns="http://www.w3.org/2000/svg">
  <defs>
    <mask fill="white" id="clip35">
      <path d="M 0 28  L 0 4  C 0 1.76000000000001  1.75999999999999 0  4 0  L 64.8823529411782 0  L 84 0  C 86.24 0  88 1.76000000000001  88 4  L 88 28  C 88 30.24  86.24 32  84 32  L 4 32  C 1.75999999999999 32  0 30.24  0 28  Z " fill-rule="evenodd" />
    </mask>
  </defs>
  <g transform="matrix(1 0 0 1 -149 -110 )">
    <path d="M 0 28  L 0 4  C 0 1.76000000000001  1.75999999999999 0  4 0  L 64.8823529411782 0  L 84 0  C 86.24 0  88 1.76000000000001  88 4  L 88 28  C 88 30.24  86.24 32  84 32  L 4 32  C 1.75999999999999 32  0 30.24  0 28  Z " fill-rule="nonzero" fill="#ffffff" stroke="none" transform="matrix(1 0 0 1 149 110 )" />
    <path d="M 0 28  L 0 4  C 0 1.76000000000001  1.75999999999999 0  4 0  L 64.8823529411782 0  L 84 0  C 86.24 0  88 1.76000000000001  88 4  L 88 28  C 88 30.24  86.24 32  84 32  L 4 32  C 1.75999999999999 32  0 30.24  0 28  Z " stroke-width="2" stroke="#d9d9d9" fill="none" transform="matrix(1 0 0 1 149 110 )" mask="url(#clip35)" />
  </g>
</svg>