<?xml version="1.0" encoding="utf-8"?>
<svg version="1.1" xmlns:xlink="http://www.w3.org/1999/xlink" width="64px" height="64px" xmlns="http://www.w3.org/2000/svg">
  <g transform="matrix(1 0 0 1 -169 -116 )">
    <path d="M 201 116  C 218.92 116  233 130.08  233 148  C 233 165.92  218.92 180  201 180  C 183.08 180  169 165.92  169 148  C 169 130.08  183.08 116  201 116  Z " fill-rule="nonzero" fill="#e9e9e9" stroke="none" />
    <path d="M 201 116.5  C 218.64 116.5  232.5 130.36  232.5 148  C 232.5 165.64  218.64 179.5  201 179.5  C 183.36 179.5  169.5 165.64  169.5 148  C 169.5 130.36  183.36 116.5  201 116.5  Z " stroke-width="1" stroke="#ffffff" fill="none" />
  </g>
</svg>