<?xml version="1.0" encoding="utf-8"?>
<svg version="1.1" xmlns:xlink="http://www.w3.org/1999/xlink" width="64px" height="64px" xmlns="http://www.w3.org/2000/svg">
  <g transform="matrix(1 0 0 1 -169 -116 )">
    <path d="M 198.333511537484 116.613062600621  C 199.22026999089 116.53772771924  200.109897522075 116.5  201 116.5  C 218.39696961967 116.5  232.5 130.60303038033  232.5 148  C 232.5 165.39696961967  218.39696961967 179.5  201 179.5  C 183.60303038033 179.5  169.5 165.39696961967  169.5 148  C 169.5 142.637355364267  170.869029054164 137.366338404969  173.473635776507 132.684996474949  L 200.75 148.433012701892  A 0.5 0.5 0 0 0 201.497470760719 147.949772097104 L 198.333511537502 116.613062600619  Z " fill-rule="nonzero" fill="#99d5fd" stroke="none" />
    <path d="M 198.333511537484 116.613062600621  C 199.22026999089 116.53772771924  200.109897522075 116.5  201 116.5  C 218.39696961967 116.5  232.5 130.60303038033  232.5 148  C 232.5 165.39696961967  218.39696961967 179.5  201 179.5  C 183.60303038033 179.5  169.5 165.39696961967  169.5 148  C 169.5 142.637355364267  170.869029054164 137.366338404969  173.473635776507 132.684996474949  L 200.75 148.433012701892  A 0.5 0.5 0 0 0 201.497470760719 147.949772097104 L 198.333511537502 116.613062600619  Z " stroke-width="1" stroke="#ffffff" fill="none" />
  </g>
</svg>