<?xml version="1.0" encoding="utf-8"?>
<svg version="1.1" xmlns:xlink="http://www.w3.org/1999/xlink" width="64px" height="64px" xmlns="http://www.w3.org/2000/svg">
  <g transform="matrix(1 0 0 1 -404 -116 )">
    <path d="M 433.333511537484 116.613062600621  C 434.22026999089 116.53772771924  435.109897522075 116.5  436 116.5  C 453.39696961967 116.5  467.5 130.60303038033  467.5 148  C 467.5 165.39696961967  453.39696961967 179.5  436 179.5  C 419.852014491796 179.5  406.349015581785 167.296426827724  404.672190417079 151.289741636116  L 436.044318343823 148.498032011422  A 0.5 0.5 0 0 0 436.497470760719 147.949772097104 L 433.333511537502 116.613062600619  Z " fill-rule="nonzero" fill="#0096fa" stroke="none" />
    <path d="M 433.333511537484 116.613062600621  C 434.22026999089 116.53772771924  435.109897522075 116.5  436 116.5  C 453.39696961967 116.5  467.5 130.60303038033  467.5 148  C 467.5 165.39696961967  453.39696961967 179.5  436 179.5  C 419.852014491796 179.5  406.349015581785 167.296426827724  404.672190417079 151.289741636116  L 436.044318343823 148.498032011422  A 0.5 0.5 0 0 0 436.497470760719 147.949772097104 L 433.333511537502 116.613062600619  Z " stroke-width="1" stroke="#ffffff" fill="none" />
  </g>
</svg>