<?xml version="1.0" encoding="utf-8"?>
<svg version="1.1" xmlns:xlink="http://www.w3.org/1999/xlink" width="60px" height="32px" xmlns="http://www.w3.org/2000/svg">
  <defs>
    <mask fill="white" id="clip34">
      <path d="M 0 28  L 0 4  C 0 1.76000000000001  1.19999999999999 0  2.72727272727273 0  L 44.2379679144397 0  L 57.2727272727273 0  C 58.8 0  60 1.76000000000001  60 4  L 60 28  C 60 30.24  58.8 32  57.2727272727273 32  L 2.72727272727273 32  C 1.19999999999999 32  0 30.24  0 28  Z " fill-rule="evenodd" />
    </mask>
  </defs>
  <g transform="matrix(1 0 0 1 -272 -110 )">
    <path d="M 0 28  L 0 4  C 0 1.76000000000001  1.19999999999999 0  2.72727272727273 0  L 44.2379679144397 0  L 57.2727272727273 0  C 58.8 0  60 1.76000000000001  60 4  L 60 28  C 60 30.24  58.8 32  57.2727272727273 32  L 2.72727272727273 32  C 1.19999999999999 32  0 30.24  0 28  Z " fill-rule="nonzero" fill="#ffffff" stroke="none" transform="matrix(1 0 0 1 272 110 )" />
    <path d="M 0 28  L 0 4  C 0 1.76000000000001  1.19999999999999 0  2.72727272727273 0  L 44.2379679144397 0  L 57.2727272727273 0  C 58.8 0  60 1.76000000000001  60 4  L 60 28  C 60 30.24  58.8 32  57.2727272727273 32  L 2.72727272727273 32  C 1.19999999999999 32  0 30.24  0 28  Z " stroke-width="2" stroke="#d9d9d9" fill="none" transform="matrix(1 0 0 1 272 110 )" mask="url(#clip34)" />
  </g>
</svg>