<?xml version="1.0" encoding="utf-8"?>
<svg version="1.1" xmlns:xlink="http://www.w3.org/1999/xlink" width="10px" height="10px" xmlns="http://www.w3.org/2000/svg">
  <g transform="matrix(1 0 0 1 -127 -273 )">
    <path d="M 132 274  C 134.24 274  136 275.76  136 278  C 136 280.24  134.24 282  132 282  C 129.76 282  128 280.24  128 278  C 128 275.76  129.76 274  132 274  Z " fill-rule="nonzero" fill="#1890ff" stroke="none" />
    <path d="M 132 274  C 134.24 274  136 275.76  136 278  C 136 280.24  134.24 282  132 282  C 129.76 282  128 280.24  128 278  C 128 275.76  129.76 274  132 274  Z " stroke-width="2" stroke="#ffffff" fill="none" />
  </g>
</svg>