<?xml version="1.0" encoding="utf-8"?>
<svg version="1.1" xmlns:xlink="http://www.w3.org/1999/xlink" width="14px" height="14px" xmlns="http://www.w3.org/2000/svg">
  <g transform="matrix(1 0 0 1 -452 -270 )">
    <path d="M 459 271  C 462.36 271  465 273.64  465 277  C 465 280.36  462.36 283  459 283  C 455.64 283  453 280.36  453 277  C 453 273.64  455.64 271  459 271  Z " fill-rule="nonzero" fill="#1890ff" stroke="none" />
    <path d="M 459 271  C 462.36 271  465 273.64  465 277  C 465 280.36  462.36 283  459 283  C 455.64 283  453 280.36  453 277  C 453 273.64  455.64 271  459 271  Z " stroke-width="2" stroke="#ffffff" fill="none" />
  </g>
</svg>