<?xml version="1.0" encoding="utf-8"?>
<svg version="1.1" xmlns:xlink="http://www.w3.org/1999/xlink" width="300px" height="100px" xmlns="http://www.w3.org/2000/svg">
  <g transform="matrix(1 0 0 1 -532 -1031 )">
    <path d="M 532 1031  L 832 1031  L 832 1131  L 532 1131  L 532 1031  " fill-rule="nonzero" fill="#cccccc" stroke="none" />
    <path d="M 539 1038  L 825 1038  L 825 1124  L 539 1124  L 539 1038  " fill-rule="nonzero" fill="#ffffff" stroke="none" />
    <path d="M 695.5 1061  C 691.3 1061  688 1057.7  688 1053.5  C 688 1049.3  691.3 1046  695.5 1046  C 699.7 1046  703 1049.3  703 1053.5  C 703 1057.7  699.7 1061  695.5 1061  " fill-rule="nonzero" fill="#cccccc" stroke="none" />
    <path d="M 542 1122  L 542 1077.45  L 612.25 1057.2  L 710.6 1105.8  L 766.8 1069.35  L 823 1105.8  L 823 1122  L 542 1122  " fill-rule="nonzero" fill="#169bd5" stroke="none" />
  </g>
</svg>