<?xml version="1.0" encoding="utf-8"?>
<svg version="1.1" xmlns:xlink="http://www.w3.org/1999/xlink" width="39px" height="39px" xmlns="http://www.w3.org/2000/svg">
  <g transform="matrix(1 0 0 1 -181 -128 )">
    <path d="M 200.5 128  C 211.42 128  220 136.58  220 147.5  C 220 158.42  211.42 167  200.5 167  C 189.58 167  181 158.42  181 147.5  C 181 136.58  189.58 128  200.5 128  Z " fill-rule="nonzero" fill="#ffffff" stroke="none" />
    <path d="M 200.5 128.5  C 211.14 128.5  219.5 136.86  219.5 147.5  C 219.5 158.14  211.14 166.5  200.5 166.5  C 189.86 166.5  181.5 158.14  181.5 147.5  C 181.5 136.86  189.86 128.5  200.5 128.5  Z " stroke-width="1" stroke="#ffffff" fill="none" />
  </g>
</svg>